# Blender 4.5.3 LTS
# www.blender.org
mtllib minecraft player rigged.mtl
o arm.L
v 0.284193 -0.267528 0.128163
v 0.284193 0.578943 0.128163
v 0.284193 -0.267528 -0.165247
v 0.284193 0.578943 -0.165247
v 0.563183 -0.267528 0.128163
v 0.563183 0.578943 0.128163
v 0.563183 -0.267528 -0.165247
v 0.563183 0.578943 -0.165247
v 0.284193 0.296786 -0.165247
v 0.284193 0.014629 -0.165247
v 0.284193 0.296786 0.128163
v 0.284193 0.014629 0.128163
v 0.563183 0.296786 -0.165247
v 0.563183 0.014629 -0.165247
v 0.563183 0.296786 0.128163
v 0.563183 0.014629 0.128163
v -0.279900 -0.267528 0.128163
v -0.279900 0.578943 0.128163
v -0.279900 -0.267528 -0.165247
v -0.279900 0.578943 -0.165247
v 0.284193 -0.267528 0.128163
v 0.284193 0.578943 0.128163
v 0.284193 -0.267528 -0.165247
v 0.284193 0.578943 -0.165247
v -0.279900 -0.267528 0.128163
v -0.279900 0.578943 0.128163
v -0.279900 -0.267528 -0.165247
v -0.279900 0.578943 -0.165247
v -0.558891 -0.267528 0.128163
v -0.558891 0.578943 0.128163
v -0.558891 -0.267528 -0.165247
v -0.558891 0.578943 -0.165247
v -0.279900 0.014629 0.128163
v -0.279900 0.296786 0.128163
v -0.279900 0.296786 -0.165247
v -0.279900 0.014629 -0.165247
v -0.558891 0.014629 0.128163
v -0.558891 0.296786 0.128163
v -0.558891 0.296786 -0.165247
v -0.558891 0.014629 -0.165247
v -0.279900 -0.267528 0.128163
v -0.279900 -0.267528 -0.165247
v -0.279900 -1.105016 0.128163
v -0.279900 -1.105016 -0.165247
v 0.002146 -0.267528 -0.165247
v 0.002146 -0.267528 0.128163
v 0.002146 -1.105016 -0.165247
v 0.002146 -1.105016 0.128163
v 0.279901 -0.267528 -0.165247
v 0.279900 -0.267528 0.128163
v 0.279901 -1.105016 -0.165247
v 0.279900 -1.105016 0.128163
v -0.002146 -0.267528 0.128163
v -0.002146 -0.267528 -0.165247
v -0.002146 -1.105016 0.128163
v -0.002146 -1.105016 -0.165247
v -0.288997 0.578652 0.261387
v -0.288997 1.142362 0.261387
v -0.288997 0.578652 -0.310318
v -0.288997 1.142362 -0.310318
v 0.288997 0.578652 0.261387
v 0.288997 1.142362 0.261387
v 0.288997 0.578652 -0.310318
v 0.288997 1.142362 -0.310318
vn -1.0000 -0.0000 -0.0000
vn 1.0000 -0.0000 -0.0000
vn -0.0000 -0.0000 -1.0000
vn -0.0000 -0.0000 1.0000
vn -0.0000 -1.0000 -0.0000
vn -0.0000 1.0000 -0.0000
vt 0.562562 0.125046
vt 0.500302 0.187608
vt 0.500302 0.125046
vt 0.687028 0.188498
vt 0.626033 0.125494
vt 0.687028 0.125494
vt 0.749347 0.187494
vt 0.687655 0.125101
vt 0.749347 0.125101
vt 0.562798 0.000254
vt 0.624323 0.062478
vt 0.562798 0.062478
vt 0.685700 0.250219
vt 0.626341 0.187792
vt 0.685700 0.187792
vt 0.624873 0.187299
vt 0.562482 0.249832
vt 0.562482 0.187299
vt 0.562798 0.124701
vt 0.624323 0.186925
vt 0.562798 0.186925
vt 0.624323 0.124701
vt 0.749347 0.062709
vt 0.687655 0.000316
vt 0.749347 0.000316
vt 0.687655 0.062709
vt 0.687028 0.062489
vt 0.626033 -0.000515
vt 0.687028 -0.000515
vt 0.626033 0.062489
vt 0.562562 -0.000079
vt 0.500302 0.062484
vt 0.500302 -0.000079
vt 0.562562 0.062484
vt 0.313437 0.687365
vt 0.249497 0.499060
vt 0.313437 0.499060
vt 0.625369 0.688025
vt 0.500746 0.498836
vt 0.625369 0.498836
vt 0.501228 0.688404
vt 0.439347 0.501209
vt 0.501228 0.501209
vt 0.437420 0.687148
vt 0.312483 0.499654
vt 0.437420 0.499654
vt 0.563133 0.687851
vt 0.438104 0.749364
vt 0.438104 0.687851
vt 0.312943 0.748908
vt 0.436670 0.688542
vt 0.436670 0.748908
vt 0.813944 0.624484
vt 0.749576 0.686383
vt 0.749576 0.624484
vt 0.688585 0.684041
vt 0.625834 0.623696
vt 0.688585 0.623696
vt 0.813906 0.501831
vt 0.873854 0.562459
vt 0.813906 0.562459
vt 0.748914 0.685328
vt 0.688326 0.624053
vt 0.748914 0.624053
vt 0.749673 0.750621
vt 0.688418 0.688321
vt 0.749673 0.688321
vt 0.812222 0.688012
vt 0.750453 0.746744
vt 0.750453 0.688012
vt 0.748914 0.562777
vt 0.688326 0.501501
vt 0.748914 0.501501
vt 0.688326 0.562777
vt 0.813906 0.623088
vt 0.873854 0.683716
vt 0.813906 0.683716
vt 0.873854 0.623088
vt 0.688585 0.563352
vt 0.625834 0.503007
vt 0.688585 0.503007
vt 0.625834 0.563352
vt 0.813944 0.500687
vt 0.749576 0.562585
vt 0.749576 0.500687
vt 0.187603 0.687624
vt 0.125441 0.499993
vt 0.187603 0.499993
vt 0.000763 0.687522
vt 0.062525 0.500082
vt 0.062525 0.687522
vt 0.061809 0.687349
vt 0.124867 0.500110
vt 0.124867 0.687349
vt 0.188840 0.686943
vt 0.249155 0.499970
vt 0.249155 0.686943
vt 0.186683 0.748170
vt 0.125818 0.689662
vt 0.186683 0.689662
vt 0.124710 0.689542
vt 0.064292 0.747620
vt 0.064292 0.689542
vt 0.312677 0.187284
vt 0.250357 0.000000
vt 0.312677 0.000000
vt 0.375201 0.187168
vt 0.437492 0.000396
vt 0.437492 0.187168
vt 0.437492 0.187613
vt 0.498704 0.000102
vt 0.498704 0.187613
vt 0.312491 0.185223
vt 0.374875 -0.000016
vt 0.374875 0.185223
vt 0.378920 0.188979
vt 0.435387 0.247721
vt 0.378920 0.247721
vt 0.373598 0.188059
vt 0.314060 0.249995
vt 0.314060 0.188059
vt 0.123866 0.873043
vt 0.000926 0.751823
vt 0.123866 0.751823
vt 0.500865 0.874384
vt 0.373733 0.750394
vt 0.500865 0.750394
vt 0.371058 0.870503
vt 0.249857 0.750996
vt 0.371058 0.750996
vt 0.249480 0.875176
vt 0.124898 0.753672
vt 0.249480 0.753672
vt 0.374059 0.999300
vt 0.251439 0.875331
vt 0.374059 0.875331
vt 0.125402 0.997540
vt 0.249094 0.875193
vt 0.249094 0.997540
vt 0.562562 0.187608
vt 0.626033 0.188498
vt 0.687655 0.187494
vt 0.624323 0.000254
vt 0.626341 0.250219
vt 0.624873 0.249832
vt 0.249497 0.687365
vt 0.500746 0.688025
vt 0.439347 0.688404
vt 0.312483 0.687148
vt 0.563133 0.749364
vt 0.312943 0.688542
vt 0.813944 0.686383
vt 0.625834 0.684041
vt 0.873854 0.501831
vt 0.688326 0.685328
vt 0.688418 0.750621
vt 0.812222 0.746744
vt 0.813944 0.562585
vt 0.125441 0.687624
vt 0.000763 0.500082
vt 0.061809 0.500110
vt 0.188840 0.499970
vt 0.125818 0.748170
vt 0.124710 0.747620
vt 0.250357 0.187284
vt 0.375201 0.000396
vt 0.437492 0.000102
vt 0.312491 -0.000016
vt 0.435387 0.188979
vt 0.373598 0.249995
vt 0.000926 0.873043
vt 0.373733 0.874384
vt 0.249857 0.870503
vt 0.124897 0.875176
vt 0.251439 0.999300
vt 0.125402 0.875193
s 1
usemtl skin
f 11/1/1 4/2/1 9/3/1
f 8/4/2 15/5/2 13/6/2
f 4/7/3 13/8/3 9/9/3
f 1/10/4 16/11/4 12/12/4
f 3/13/5 5/14/5 1/15/5
f 2/16/6 8/17/6 4/18/6
f 11/19/4 6/20/4 2/21/4
f 12/12/4 15/22/4 11/19/4
f 10/23/3 7/24/3 3/25/3
f 9/9/3 14/26/3 10/23/3
f 14/27/2 5/28/2 7/29/2
f 13/6/2 16/30/2 14/27/2
f 1/31/1 10/32/1 3/33/1
f 12/34/1 9/3/1 10/32/1
f 18/35/1 19/36/1 17/37/1
f 20/38/3 23/39/3 19/40/3
f 24/41/2 21/42/2 23/43/2
f 22/44/4 17/45/4 21/46/4
f 23/47/5 17/48/5 19/49/5
f 20/50/6 22/51/6 24/52/6
f 35/53/2 26/54/2 34/55/2
f 30/56/1 39/57/1 38/58/1
f 27/59/3 40/60/3 36/61/3
f 26/62/4 38/63/4 34/64/4
f 28/65/6 30/66/6 26/67/6
f 25/68/5 31/69/5 27/70/5
f 33/71/4 29/72/4 25/73/4
f 34/64/4 37/74/4 33/71/4
f 35/75/3 32/76/3 28/77/3
f 36/61/3 39/78/3 35/75/3
f 37/79/1 31/80/1 29/81/1
f 37/79/1 39/57/1 40/82/1
f 27/83/2 33/84/2 25/85/2
f 33/84/2 35/53/2 34/55/2
f 45/86/2 48/87/2 47/88/2
f 42/89/1 43/90/1 41/91/1
f 41/92/4 48/93/4 46/94/4
f 45/95/3 44/96/3 42/97/3
f 47/98/5 43/99/5 44/100/5
f 41/101/6 45/102/6 42/103/6
f 53/104/1 56/105/1 55/106/1
f 50/107/2 51/108/2 49/109/2
f 49/110/3 56/111/3 54/112/3
f 53/113/4 52/114/4 50/115/4
f 52/116/5 56/117/5 51/118/5
f 50/119/6 54/120/6 53/121/6
f 58/122/1 59/123/1 57/124/1
f 60/125/3 63/126/3 59/127/3
f 64/128/2 61/129/2 63/130/2
f 62/131/4 57/132/4 61/133/4
f 63/134/5 57/135/5 59/136/5
f 60/137/6 62/138/6 64/139/6
f 11/1/1 2/140/1 4/2/1
f 8/4/2 6/141/2 15/5/2
f 4/7/3 8/142/3 13/8/3
f 1/10/4 5/143/4 16/11/4
f 3/13/5 7/144/5 5/14/5
f 2/16/6 6/145/6 8/17/6
f 11/19/4 15/22/4 6/20/4
f 12/12/4 16/11/4 15/22/4
f 10/23/3 14/26/3 7/24/3
f 9/9/3 13/8/3 14/26/3
f 14/27/2 16/30/2 5/28/2
f 13/6/2 15/5/2 16/30/2
f 1/31/1 12/34/1 10/32/1
f 12/34/1 11/1/1 9/3/1
f 18/35/1 20/146/1 19/36/1
f 20/38/3 24/147/3 23/39/3
f 24/41/2 22/148/2 21/42/2
f 22/44/4 18/149/4 17/45/4
f 23/47/5 21/150/5 17/48/5
f 20/50/6 18/151/6 22/51/6
f 35/53/2 28/152/2 26/54/2
f 30/56/1 32/153/1 39/57/1
f 27/59/3 31/154/3 40/60/3
f 26/62/4 30/155/4 38/63/4
f 28/65/6 32/156/6 30/66/6
f 25/68/5 29/157/5 31/69/5
f 33/71/4 37/74/4 29/72/4
f 34/64/4 38/63/4 37/74/4
f 35/75/3 39/78/3 32/76/3
f 36/61/3 40/60/3 39/78/3
f 37/79/1 40/82/1 31/80/1
f 37/79/1 38/58/1 39/57/1
f 27/83/2 36/158/2 33/84/2
f 33/84/2 36/158/2 35/53/2
f 45/86/2 46/159/2 48/87/2
f 42/89/1 44/160/1 43/90/1
f 41/92/4 43/161/4 48/93/4
f 45/95/3 47/162/3 44/96/3
f 47/98/5 48/163/5 43/99/5
f 41/101/6 46/164/6 45/102/6
f 53/104/1 54/165/1 56/105/1
f 50/107/2 52/166/2 51/108/2
f 49/110/3 51/167/3 56/111/3
f 53/113/4 55/168/4 52/114/4
f 52/116/5 55/169/5 56/117/5
f 50/119/6 49/170/6 54/120/6
f 58/122/1 60/171/1 59/123/1
f 60/125/3 64/172/3 63/126/3
f 64/128/2 62/173/2 61/129/2
f 62/131/4 58/174/4 57/132/4
f 63/134/5 61/175/5 57/135/5
f 60/137/6 58/176/6 62/138/6
